<svg xmlns="http://www.w3.org/2000/svg" xmlns:xlink="http://www.w3.org/1999/xlink" width="500" zoomAndPan="magnify" viewBox="0 0 375 374.999991" height="500" preserveAspectRatio="xMidYMid meet" version="1.0"><defs><g/><clipPath id="3b44892d3a"><path d="M 75.671875 131.695312 L 149.921875 131.695312 L 149.921875 205.945312 L 75.671875 205.945312 Z M 75.671875 131.695312 " clip-rule="nonzero"/></clipPath><clipPath id="b5ed77f61f"><path d="M 74.921875 168.871094 C 74.921875 189.816406 91.902344 206.796875 112.847656 206.796875 C 133.792969 206.796875 150.773438 189.816406 150.773438 168.871094 C 150.773438 147.925781 133.792969 130.945312 112.847656 130.945312 C 91.902344 130.945312 74.921875 147.925781 74.921875 168.871094 Z M 74.921875 168.871094 " clip-rule="nonzero"/></clipPath><clipPath id="e07b25c734"><path d="M 112.847656 131.84375 C 133.296875 131.84375 149.875 148.421875 149.875 168.871094 C 149.875 189.320312 133.296875 205.898438 112.847656 205.898438 C 92.398438 205.898438 75.820312 189.320312 75.820312 168.871094 C 75.820312 148.421875 92.398438 131.84375 112.847656 131.84375 Z M 112.847656 131.84375 " clip-rule="nonzero"/></clipPath><clipPath id="41438eab3d"><path d="M 74.921875 130.945312 L 150.671875 130.945312 L 150.671875 206.695312 L 74.921875 206.695312 Z M 74.921875 130.945312 " clip-rule="nonzero"/></clipPath><clipPath id="a50c8a9da6"><path d="M 74.921875 168.871094 C 74.921875 189.816406 91.902344 206.796875 112.847656 206.796875 C 133.792969 206.796875 150.773438 189.816406 150.773438 168.871094 C 150.773438 147.925781 133.792969 130.945312 112.847656 130.945312 C 91.902344 130.945312 74.921875 147.925781 74.921875 168.871094 Z M 74.921875 168.871094 " clip-rule="nonzero"/></clipPath><clipPath id="faf8b93944"><path d="M 74.921875 168.867188 C 74.921875 189.808594 91.898438 206.789062 112.84375 206.789062 C 133.789062 206.789062 150.765625 189.808594 150.765625 168.867188 C 150.765625 147.921875 133.789062 130.945312 112.84375 130.945312 C 91.898438 130.945312 74.921875 147.921875 74.921875 168.867188 Z M 74.921875 168.867188 " clip-rule="nonzero"/></clipPath><clipPath id="a58d93c99e"><path d="M 43 146 L 107 146 L 107 259 L 43 259 Z M 43 146 " clip-rule="nonzero"/></clipPath><clipPath id="e89414eb73"><path d="M 11.609375 190.3125 L 106.972656 146.234375 L 138.402344 214.238281 L 43.039062 258.316406 Z M 11.609375 190.3125 " clip-rule="nonzero"/></clipPath><clipPath id="8380089082"><path d="M 59.207031 168.3125 L 106.804688 146.3125 L 90.640625 236.316406 L 43.039062 258.316406 Z M 59.207031 168.3125 " clip-rule="nonzero"/></clipPath><clipPath id="bf1941c628"><path d="M 43 146 L 107 146 L 107 259 L 43 259 Z M 43 146 " clip-rule="nonzero"/></clipPath><clipPath id="bac256dadd"><path d="M 11.609375 190.3125 L 106.921875 146.257812 L 138.386719 214.339844 L 43.074219 258.390625 Z M 11.609375 190.3125 " clip-rule="nonzero"/></clipPath><clipPath id="b2aa9f7b4c"><path d="M 11.613281 190.3125 L 106.800781 146.316406 L 138.421875 214.730469 L 43.234375 258.726562 Z M 11.613281 190.3125 " clip-rule="nonzero"/></clipPath><clipPath id="b30ecbacfe"><path d="M 59.207031 168.3125 L 106.800781 146.316406 L 90.632812 236.308594 L 43.039062 258.304688 Z M 59.207031 168.3125 " clip-rule="nonzero"/></clipPath><clipPath id="1c0267b590"><path d="M 39.515625 123.925781 L 191.386719 123.925781 L 191.386719 173.015625 L 39.515625 173.015625 Z M 39.515625 123.925781 " clip-rule="nonzero"/></clipPath><clipPath id="d9fc67d9de"><path d="M 82.320312 123.925781 L 190.890625 123.925781 C 191.023438 123.925781 191.148438 124.003906 191.203125 124.128906 C 191.257812 124.25 191.238281 124.394531 191.152344 124.496094 L 149.882812 172.449219 C 149.574219 172.808594 149.121094 173.015625 148.644531 173.015625 L 40.074219 173.015625 C 39.941406 173.015625 39.816406 172.9375 39.761719 172.816406 C 39.707031 172.691406 39.726562 172.550781 39.8125 172.449219 L 81.082031 124.496094 C 81.390625 124.136719 81.84375 123.925781 82.320312 123.925781 Z M 82.320312 123.925781 " clip-rule="nonzero"/></clipPath><clipPath id="e7f3583e9a"><path d="M 39.335938 123.925781 L 191.574219 123.925781 L 191.574219 172.675781 L 39.335938 172.675781 Z M 39.335938 123.925781 " clip-rule="nonzero"/></clipPath><clipPath id="e142494442"><path d="M 82.324219 123.925781 L 190.871094 123.925781 C 191.003906 123.925781 191.128906 124.003906 191.183594 124.128906 C 191.238281 124.25 191.21875 124.394531 191.132812 124.496094 L 149.871094 172.4375 C 149.5625 172.796875 149.109375 173.003906 148.632812 173.003906 L 40.085938 173.003906 C 39.953125 173.003906 39.832031 172.925781 39.773438 172.804688 C 39.71875 172.683594 39.738281 172.539062 39.828125 172.4375 L 81.085938 124.496094 C 81.394531 124.136719 81.847656 123.925781 82.324219 123.925781 Z M 82.324219 123.925781 " clip-rule="nonzero"/></clipPath></defs><path stroke-linecap="butt" transform="matrix(1.006439, 0, 0, 1.006439, -320.214642, 149.275025)" fill="none" stroke-linejoin="miter" d="M 455.593771 87.000753 L 438.423076 87.000753 L 450.377357 30.454672 L 467.610153 30.454672 Z M 469.97384 53.932415 C 472.834329 52.535162 475.764681 51.51439 478.764895 50.870101 C 481.761228 50.225812 485.110755 49.903667 488.809596 49.903667 C 492.407525 49.903667 495.388332 50.186999 497.744257 50.745901 C 500.096301 51.308684 501.974831 52.123748 503.372085 53.191095 C 504.769339 54.246798 505.747416 55.504326 506.306318 56.971442 C 506.8691 58.423034 507.148551 60.072569 507.148551 61.920049 C 507.148551 62.987396 507.08257 64.14013 506.942844 65.370489 C 506.807 66.60473 506.655631 67.644908 506.492618 68.494904 L 502.529851 87.000753 L 488.992016 87.000753 L 487.474443 81.617445 L 486.958235 81.617445 C 485.165093 83.577481 483.076975 85.075648 480.693881 86.115825 C 478.310787 87.156003 475.943219 87.676092 473.587294 87.676092 C 472.248259 87.676092 470.924749 87.478148 469.624527 87.082259 C 468.335949 86.686371 467.187096 86.080894 466.174087 85.273592 C 465.172721 84.46629 464.365419 83.433875 463.748299 82.172465 C 463.13506 80.899412 462.824559 79.366314 462.824559 77.573172 C 462.824559 74.654464 463.620217 72.341233 465.207653 70.629597 C 466.810613 68.917961 468.910375 67.629383 471.514701 66.767743 C 474.13067 65.890578 477.072665 65.343321 480.344568 65.12597 C 483.631995 64.904738 486.931066 64.796063 490.245663 64.796063 C 490.354338 64.237161 490.494063 63.433741 490.657076 62.393563 C 490.835614 61.353385 490.924883 60.441289 490.924883 59.661156 C 490.924883 58.648147 490.657076 57.708882 490.121462 56.847242 C 489.58973 55.970077 488.479689 55.531495 486.795222 55.531495 C 484.839067 55.531495 483.391357 56.109802 482.459855 57.258656 C 481.543877 58.407509 480.942282 59.797 480.655069 61.427129 L 468.37088 61.427129 Z M 489.321923 68.739423 L 487.800469 68.739423 C 486.170339 68.739423 484.780848 68.952893 483.631995 69.37595 C 482.494786 69.802889 481.571046 70.350146 480.860775 71.021604 C 480.162149 71.693062 479.64206 72.449908 479.296627 73.299904 C 478.970602 74.134375 478.803707 74.968846 478.803707 75.807198 C 478.803707 77.161758 479.153021 78.174767 479.851648 78.846225 C 480.550275 79.517683 481.380864 79.851471 482.339536 79.851471 C 483.515557 79.851471 484.679935 79.436177 485.828788 78.597824 C 486.981523 77.75171 487.691793 76.626144 487.967363 75.232772 Z M 547.711602 84.986379 C 545.355677 85.933406 542.87167 86.616508 540.255701 87.039565 C 537.655257 87.466504 534.697736 87.676092 531.38314 87.676092 C 528.468314 87.676092 525.790244 87.384998 523.352813 86.795046 C 520.915381 86.205094 518.800094 85.269711 517.006952 83.981132 C 515.21381 82.68091 513.808794 81.008087 512.795785 78.970425 C 511.782776 76.913357 511.274331 74.429351 511.274331 71.514524 C 511.274331 68.487141 511.79442 65.673228 512.838479 63.072783 C 513.878656 60.456814 515.446685 58.170752 517.538685 56.210715 C 519.65009 54.25456 522.324279 52.7137 525.572893 51.588134 C 528.829271 50.46645 532.70665 49.903667 537.197268 49.903667 C 540.83789 49.903667 544.001117 50.198643 546.686949 50.788595 C 549.384425 51.378546 551.600625 52.705937 553.339429 54.774649 L 550.979623 65.55679 L 539.537668 65.55679 C 539.592005 64.598119 539.646343 63.755885 539.700681 63.03009 C 539.770543 62.29265 539.805475 61.477585 539.805475 60.584896 C 539.805475 58.791753 539.607531 57.5187 539.207761 56.765735 C 538.811872 55.997246 538.167583 55.616882 537.278774 55.616882 C 535.702983 55.616882 534.329017 56.389253 533.149113 57.937876 C 531.973092 59.470974 530.998895 61.318454 530.234287 63.480316 C 529.481323 65.646059 528.91854 67.920477 528.54982 70.29969 C 528.192744 72.682784 528.014206 74.716564 528.014206 76.401031 C 528.014206 77.018151 528.041375 77.646916 528.095713 78.291205 C 528.153932 78.935494 528.274251 79.537089 528.468314 80.099872 C 528.67402 80.658774 528.937946 81.112881 529.267853 81.454432 C 529.609404 81.784339 530.09068 81.947352 530.707801 81.947352 C 531.266702 81.947352 531.910991 81.784339 532.636787 81.454432 C 533.374227 81.112881 534.080616 80.592792 534.752074 79.894165 C 535.423532 79.195538 536.067821 78.283442 536.68106 77.161758 C 537.298181 76.040074 537.779457 74.689395 538.121008 73.113604 L 550.13739 73.113604 Z M 572.520617 70.097864 C 572.303267 71.328224 572.144135 72.504246 572.050985 73.629811 C 571.969478 74.751495 571.926785 75.756742 571.926785 76.649432 C 571.926785 77.153996 571.953953 77.716778 572.008291 78.333899 C 572.062629 78.947138 572.186829 79.525446 572.377011 80.057178 C 572.582718 80.592792 572.86605 81.043018 573.219244 81.411738 C 573.591845 81.768814 574.115815 81.947352 574.802798 81.947352 C 575.295719 81.947352 575.862383 81.784339 576.506672 81.454432 C 577.162605 81.112881 577.814656 80.631605 578.458946 80.018366 C 579.103235 79.401245 579.716474 78.648281 580.306426 77.755591 C 580.896377 76.855139 581.354366 75.838248 581.684273 74.716564 L 595.486034 74.716564 L 593.308647 83.713325 C 592.186963 84.454646 590.890622 85.075648 589.427387 85.584093 C 587.975796 86.077013 586.434935 86.480664 584.804806 86.795046 C 583.174677 87.097784 581.517379 87.315135 579.832912 87.450979 C 578.148445 87.602348 576.553247 87.676092 575.047318 87.676092 C 572.241167 87.676092 569.63296 87.42381 567.222697 86.919246 C 564.812435 86.410801 562.712673 85.541399 560.915649 84.311039 C 559.122507 83.076799 557.705847 81.438907 556.665669 79.401245 C 555.625492 77.348059 555.105403 74.805833 555.105403 71.77845 C 555.105403 69.026637 555.536223 66.336923 556.397862 63.70931 C 557.275027 61.066172 558.734381 58.725772 560.772043 56.684229 C 562.829111 54.631042 565.580924 52.985388 569.031364 51.755028 C 572.481805 50.520788 576.786122 49.903667 581.948199 49.903667 C 587.548857 49.903667 591.767787 50.776951 594.601107 52.515755 C 597.438308 54.25456 598.854968 56.971442 598.854968 60.666402 C 598.854968 62.187856 598.629855 63.829629 598.175748 65.599484 C 597.725522 67.365457 597.054063 68.863624 596.161374 70.097864 Z M 583.718053 60.072569 C 583.718053 58.333765 583.434721 57.157743 582.87582 56.540622 C 582.313037 55.923502 581.633817 55.616882 580.842039 55.616882 C 579.94935 55.616882 579.122641 55.911858 578.354152 56.497929 C 577.601187 57.08788 576.918085 57.875776 576.300965 58.861616 C 575.683845 59.847456 575.124943 60.96914 574.616498 62.23055 C 574.111934 63.488078 573.692758 64.815469 573.362851 66.212723 L 582.957326 66.212723 C 583.066002 65.541265 583.174677 64.846519 583.283352 64.120724 C 583.395909 63.503603 583.489059 62.832145 583.574447 62.10635 C 583.667597 61.365029 583.718053 60.68969 583.718053 60.072569 Z M 583.718053 60.072569 " stroke="#ff7410" stroke-width="5.258337" stroke-opacity="1" stroke-miterlimit="4"/><g fill="#048dfd" fill-opacity="1"><g transform="translate(121.879229, 236.83518)"><g><path d="M 16.421875 0 L -0.84375 0 L 11.171875 -56.90625 L 28.53125 -56.90625 Z M 16.421875 0 "/></g></g></g><g fill="#048dfd" fill-opacity="1"><g transform="translate(146.686567, 236.83518)"><g><path d="M 6.09375 -33.28125 C 8.976562 -34.6875 11.925781 -35.710938 14.9375 -36.359375 C 17.957031 -37.015625 21.332031 -37.34375 25.0625 -37.34375 C 28.675781 -37.34375 31.664062 -37.054688 34.03125 -36.484375 C 36.40625 -35.921875 38.296875 -35.101562 39.703125 -34.03125 C 41.117188 -32.957031 42.109375 -31.6875 42.671875 -30.21875 C 43.234375 -28.757812 43.515625 -27.097656 43.515625 -25.234375 C 43.515625 -24.160156 43.441406 -23 43.296875 -21.75 C 43.160156 -20.507812 43.007812 -19.46875 42.84375 -18.625 L 38.859375 0 L 25.234375 0 L 23.703125 -5.421875 L 23.203125 -5.421875 C 21.390625 -3.441406 19.285156 -1.929688 16.890625 -0.890625 C 14.492188 0.148438 12.109375 0.671875 9.734375 0.671875 C 8.378906 0.671875 7.050781 0.472656 5.75 0.078125 C 4.457031 -0.316406 3.300781 -0.921875 2.28125 -1.734375 C 1.269531 -2.554688 0.457031 -3.601562 -0.15625 -4.875 C -0.78125 -6.144531 -1.09375 -7.679688 -1.09375 -9.484375 C -1.09375 -12.421875 -0.289062 -14.75 1.3125 -16.46875 C 2.914062 -18.1875 5.03125 -19.484375 7.65625 -20.359375 C 10.28125 -21.234375 13.242188 -21.785156 16.546875 -22.015625 C 19.847656 -22.242188 23.164062 -22.359375 26.5 -22.359375 C 26.613281 -22.921875 26.753906 -23.722656 26.921875 -24.765625 C 27.097656 -25.804688 27.1875 -26.722656 27.1875 -27.515625 C 27.1875 -28.535156 26.914062 -29.484375 26.375 -30.359375 C 25.84375 -31.234375 24.726562 -31.671875 23.03125 -31.671875 C 21.050781 -31.671875 19.59375 -31.09375 18.65625 -29.9375 C 17.726562 -28.78125 17.125 -27.378906 16.84375 -25.734375 L 4.484375 -25.734375 Z M 25.578125 -18.375 L 24.046875 -18.375 C 22.410156 -18.375 21.015625 -18.160156 19.859375 -17.734375 C 18.703125 -17.316406 17.769531 -16.769531 17.0625 -16.09375 C 16.351562 -15.414062 15.828125 -14.648438 15.484375 -13.796875 C 15.148438 -12.953125 14.984375 -12.109375 14.984375 -11.265625 C 14.984375 -9.910156 15.335938 -8.894531 16.046875 -8.21875 C 16.753906 -7.539062 17.585938 -7.203125 18.546875 -7.203125 C 19.734375 -7.203125 20.90625 -7.625 22.0625 -8.46875 C 23.21875 -9.3125 23.9375 -10.441406 24.21875 -11.859375 Z M 25.578125 -18.375 "/></g></g></g><g fill="#048dfd" fill-opacity="1"><g transform="translate(193.422582, 236.83518)"><g><path d="M 37.59375 -2.03125 C 35.21875 -1.070312 32.71875 -0.382812 30.09375 0.03125 C 27.46875 0.457031 24.492188 0.671875 21.171875 0.671875 C 18.234375 0.671875 15.535156 0.378906 13.078125 -0.203125 C 10.628906 -0.796875 8.5 -1.742188 6.6875 -3.046875 C 4.882812 -4.347656 3.472656 -6.023438 2.453125 -8.078125 C 1.441406 -10.140625 0.9375 -12.640625 0.9375 -15.578125 C 0.9375 -18.628906 1.457031 -21.46875 2.5 -24.09375 C 3.539062 -26.71875 5.117188 -29.015625 7.234375 -30.984375 C 9.359375 -32.960938 12.054688 -34.515625 15.328125 -35.640625 C 18.597656 -36.773438 22.492188 -37.34375 27.015625 -37.34375 C 30.679688 -37.34375 33.867188 -37.046875 36.578125 -36.453125 C 39.285156 -35.859375 41.515625 -34.515625 43.265625 -32.421875 L 40.890625 -21.59375 L 29.375 -21.59375 C 29.4375 -22.550781 29.492188 -23.394531 29.546875 -24.125 C 29.609375 -24.863281 29.640625 -25.6875 29.640625 -26.59375 C 29.640625 -28.394531 29.441406 -29.675781 29.046875 -30.4375 C 28.648438 -31.195312 28 -31.578125 27.09375 -31.578125 C 25.507812 -31.578125 24.125 -30.800781 22.9375 -29.25 C 21.757812 -27.695312 20.785156 -25.832031 20.015625 -23.65625 C 19.253906 -21.488281 18.691406 -19.203125 18.328125 -16.796875 C 17.960938 -14.398438 17.78125 -12.359375 17.78125 -10.671875 C 17.78125 -10.046875 17.804688 -9.410156 17.859375 -8.765625 C 17.921875 -8.117188 18.050781 -7.507812 18.25 -6.9375 C 18.445312 -6.375 18.710938 -5.921875 19.046875 -5.578125 C 19.390625 -5.242188 19.867188 -5.078125 20.484375 -5.078125 C 21.054688 -5.078125 21.707031 -5.242188 22.4375 -5.578125 C 23.164062 -5.921875 23.867188 -6.445312 24.546875 -7.15625 C 25.234375 -7.863281 25.882812 -8.78125 26.5 -9.90625 C 27.125 -11.03125 27.601562 -12.382812 27.9375 -13.96875 L 40.046875 -13.96875 Z M 37.59375 -2.03125 "/></g></g></g><g fill="#048dfd" fill-opacity="1"><g transform="translate(237.533926, 236.83518)"><g><path d="M 18.453125 -17.015625 C 18.234375 -15.773438 18.078125 -14.585938 17.984375 -13.453125 C 17.898438 -12.328125 17.859375 -11.316406 17.859375 -10.421875 C 17.859375 -9.910156 17.882812 -9.34375 17.9375 -8.71875 C 18 -8.101562 18.128906 -7.523438 18.328125 -6.984375 C 18.523438 -6.453125 18.804688 -6 19.171875 -5.625 C 19.546875 -5.257812 20.070312 -5.078125 20.75 -5.078125 C 21.25 -5.078125 21.820312 -5.242188 22.46875 -5.578125 C 23.125 -5.921875 23.773438 -6.398438 24.421875 -7.015625 C 25.078125 -7.640625 25.703125 -8.40625 26.296875 -9.3125 C 26.890625 -10.21875 27.351562 -11.234375 27.6875 -12.359375 L 41.578125 -12.359375 L 39.375 -3.296875 C 38.238281 -2.566406 36.9375 -1.945312 35.46875 -1.4375 C 34.007812 -0.925781 32.457031 -0.515625 30.8125 -0.203125 C 29.175781 0.0976562 27.507812 0.316406 25.8125 0.453125 C 24.125 0.597656 22.519531 0.671875 21 0.671875 C 18.175781 0.671875 15.550781 0.421875 13.125 -0.078125 C 10.695312 -0.585938 8.578125 -1.460938 6.765625 -2.703125 C 4.960938 -3.953125 3.539062 -5.601562 2.5 -7.65625 C 1.457031 -9.71875 0.9375 -12.273438 0.9375 -15.328125 C 0.9375 -18.085938 1.375 -20.796875 2.25 -23.453125 C 3.125 -26.109375 4.585938 -28.460938 6.640625 -30.515625 C 8.703125 -32.578125 11.46875 -34.226562 14.9375 -35.46875 C 18.414062 -36.71875 22.75 -37.34375 27.9375 -37.34375 C 33.582031 -37.34375 37.828125 -36.46875 40.671875 -34.71875 C 43.523438 -32.96875 44.953125 -30.226562 44.953125 -26.5 C 44.953125 -24.976562 44.726562 -23.328125 44.28125 -21.546875 C 43.832031 -19.765625 43.15625 -18.253906 42.25 -17.015625 Z M 29.71875 -27.09375 C 29.71875 -28.84375 29.4375 -30.023438 28.875 -30.640625 C 28.3125 -31.265625 27.632812 -31.578125 26.84375 -31.578125 C 25.9375 -31.578125 25.101562 -31.28125 24.34375 -30.6875 C 23.582031 -30.09375 22.890625 -29.300781 22.265625 -28.3125 C 21.648438 -27.332031 21.085938 -26.207031 20.578125 -24.9375 C 20.066406 -23.664062 19.644531 -22.320312 19.3125 -20.90625 L 28.953125 -20.90625 C 29.066406 -21.59375 29.179688 -22.300781 29.296875 -23.03125 C 29.410156 -23.65625 29.507812 -24.332031 29.59375 -25.0625 C 29.675781 -25.789062 29.71875 -26.46875 29.71875 -27.09375 Z M 29.71875 -27.09375 "/></g></g></g><g clip-path="url(#3b44892d3a)"><g clip-path="url(#b5ed77f61f)"><g clip-path="url(#e07b25c734)"><path fill="#c1ff72" d="M 142.394531 167.519531 C 142.425781 164.382812 143.609375 161.851562 145.042969 161.863281 C 146.472656 161.878906 147.609375 164.433594 147.578125 167.570312 C 147.550781 170.707031 146.363281 173.238281 144.933594 173.226562 C 143.5 173.210938 142.363281 170.65625 142.394531 167.519531 Z M 142.167969 188.753906 C 143.933594 186.160156 145.644531 184.25 145.992188 184.484375 C 146.335938 184.71875 145.183594 187.011719 143.417969 189.605469 C 141.648438 192.199219 139.9375 194.109375 139.59375 193.871094 C 139.246094 193.636719 140.398438 191.34375 142.167969 188.753906 Z M 127.492188 183.054688 C 125.902344 181.207031 126.539062 178.050781 128.914062 176.003906 C 131.292969 173.957031 134.511719 173.792969 136.101562 175.644531 C 137.695312 177.492188 137.054688 180.648438 134.679688 182.695312 C 132.300781 184.742188 129.082031 184.902344 127.492188 183.054688 Z M 87.128906 189.746094 C 85.898438 190.476562 83.601562 188.878906 82.003906 186.179688 C 80.402344 183.480469 80.105469 180.703125 81.335938 179.972656 C 82.570312 179.242188 84.863281 180.835938 86.464844 183.535156 C 88.0625 186.234375 88.359375 189.015625 87.128906 189.746094 Z M 127.636719 148.53125 C 129.484375 146.9375 132.640625 147.578125 134.6875 149.953125 C 136.734375 152.332031 136.898438 155.550781 135.050781 157.140625 C 133.199219 158.730469 130.042969 158.09375 127.996094 155.71875 C 125.949219 153.339844 125.789062 150.121094 127.636719 148.53125 Z M 118.867188 134.898438 C 119.195312 133.960938 121.859375 134.039062 124.820312 135.074219 C 127.785156 136.109375 129.917969 137.710938 129.589844 138.644531 C 129.261719 139.582031 126.597656 139.503906 123.636719 138.46875 C 120.675781 137.433594 118.539062 135.832031 118.867188 134.898438 Z M 122.136719 193.382812 C 125.125 192.433594 127.941406 192.898438 128.425781 194.421875 C 128.910156 195.945312 126.878906 197.949219 123.886719 198.898438 C 120.898438 199.847656 118.082031 199.382812 117.597656 197.859375 C 117.113281 196.335938 119.144531 194.332031 122.136719 193.382812 Z M 112.429688 160.089844 C 115.511719 159.507812 118.484375 161.53125 119.066406 164.617188 C 119.652344 167.699219 117.625 170.671875 114.542969 171.253906 C 111.460938 171.839844 108.488281 169.8125 107.90625 166.730469 C 107.320312 163.648438 109.347656 160.675781 112.429688 160.089844 Z M 100.3125 144.445312 C 99.859375 142.046875 101.992188 139.632812 105.074219 139.046875 C 108.15625 138.464844 111.023438 139.933594 111.476562 142.328125 C 111.929688 144.726562 109.800781 147.140625 106.71875 147.726562 C 103.636719 148.308594 100.769531 146.839844 100.3125 144.445312 Z M 103.785156 190.625 C 100.488281 189.882812 98.25 187.355469 98.785156 184.976562 C 99.316406 182.59375 102.421875 181.265625 105.71875 182.007812 C 109.015625 182.75 111.253906 185.277344 110.71875 187.65625 C 110.183594 190.035156 107.078125 191.367188 103.785156 190.625 Z M 96.394531 201.265625 C 96.519531 200.867188 99.050781 201.292969 102.046875 202.21875 C 105.046875 203.144531 107.375 204.214844 107.253906 204.617188 C 107.128906 205.015625 104.601562 204.589844 101.601562 203.664062 C 98.605469 202.738281 96.273438 201.667969 96.394531 201.265625 Z M 85.050781 146.050781 C 87.089844 143.667969 89.210938 142.136719 89.785156 142.628906 C 90.359375 143.121094 89.171875 145.449219 87.132812 147.832031 C 85.089844 150.214844 82.96875 151.75 82.394531 151.257812 C 81.820312 150.765625 83.007812 148.433594 85.050781 146.050781 Z M 89.136719 159.199219 C 91.574219 159.136719 93.617188 161.628906 93.695312 164.765625 C 93.777344 167.902344 91.867188 170.496094 89.429688 170.558594 C 86.992188 170.621094 84.949219 168.128906 84.867188 164.992188 C 84.785156 161.855469 86.695312 159.261719 89.136719 159.199219 Z M 144.421875 147.863281 C 141.703125 143.785156 138.261719 140.308594 134.195312 137.535156 C 130.125 134.765625 125.632812 132.832031 120.84375 131.796875 C 115.878906 130.722656 110.816406 130.664062 105.789062 131.617188 C 100.757812 132.570312 96.066406 134.476562 91.839844 137.292969 C 87.761719 140.007812 84.285156 143.449219 81.511719 147.519531 C 78.742188 151.585938 76.808594 156.078125 75.773438 160.871094 C 74.703125 165.832031 74.640625 170.898438 75.59375 175.925781 C 76.546875 180.953125 78.457031 185.644531 81.269531 189.871094 C 83.984375 193.953125 87.425781 197.425781 91.496094 200.199219 C 95.5625 202.972656 100.054688 204.902344 104.847656 205.9375 C 109.808594 207.011719 114.875 207.070312 119.902344 206.117188 C 124.929688 205.167969 129.621094 203.257812 133.847656 200.445312 C 137.929688 197.726562 141.402344 194.285156 144.175781 190.21875 C 146.949219 186.148438 148.878906 181.65625 149.914062 176.863281 C 150.988281 171.902344 151.046875 166.839844 150.097656 161.808594 C 149.144531 156.78125 147.234375 152.089844 144.421875 147.863281 " fill-opacity="1" fill-rule="nonzero"/></g></g></g><g clip-path="url(#41438eab3d)"><g clip-path="url(#a50c8a9da6)"><g clip-path="url(#faf8b93944)"><path stroke-linecap="butt" transform="matrix(0.75, 0, 0, 0.75, 74.921748, 130.944541)" fill="none" stroke-linejoin="miter" d="M 0.000169893 50.563535 C 0.000169893 78.485414 22.635589 101.126042 50.562676 101.126042 C 78.489763 101.126042 101.125183 78.485414 101.125183 50.563535 C 101.125183 22.636448 78.489763 0.00102867 50.562676 0.00102867 C 22.635589 0.00102867 0.000169893 22.636448 0.000169893 50.563535 Z M 0.000169893 50.563535 " stroke="#ff7410" stroke-width="16" stroke-opacity="1" stroke-miterlimit="4"/></g></g></g><g clip-path="url(#a58d93c99e)"><g clip-path="url(#e89414eb73)"><g clip-path="url(#8380089082)"><path fill="#048dfd" d="M 11.609375 190.3125 L 106.707031 146.359375 L 138.136719 214.359375 L 43.039062 258.316406 Z M 11.609375 190.3125 " fill-opacity="1" fill-rule="nonzero"/></g></g></g><g clip-path="url(#bf1941c628)"><g clip-path="url(#bac256dadd)"><g clip-path="url(#b2aa9f7b4c)"><g clip-path="url(#b30ecbacfe)"><path stroke-linecap="butt" transform="matrix(0.680795, -0.31467, 0.31467, 0.680795, 11.613105, 190.310978)" fill="none" stroke-linejoin="miter" d="M 69.909339 -0.000113215 L 139.817131 0.0025608 L 69.906086 99.875801 L -0.00170617 99.873127 Z M 69.909339 -0.000113215 " stroke="#ff7410" stroke-width="12" stroke-opacity="1" stroke-miterlimit="4"/></g></g></g></g><g clip-path="url(#1c0267b590)"><g clip-path="url(#d9fc67d9de)"><path fill="#048dfd" d="M 39.324219 123.925781 L 191.578125 123.925781 L 191.578125 173.015625 L 39.324219 173.015625 Z M 39.324219 123.925781 " fill-opacity="1" fill-rule="nonzero"/></g></g><g clip-path="url(#e7f3583e9a)"><g clip-path="url(#e142494442)"><path stroke-linecap="butt" transform="matrix(0.75, 0, 0, 0.75, 39.337638, 123.927268)" fill="none" stroke-linejoin="miter" d="M 57.315445 -0.00198215 L 202.044622 -0.00198215 C 202.221705 -0.00198215 202.388372 0.102185 202.461288 0.268851 C 202.534205 0.43031 202.508163 0.623018 202.39358 0.758435 L 147.377951 64.680314 C 146.966493 65.15948 146.362326 65.435522 145.72691 65.435522 L 0.997733 65.435522 C 0.82065 65.435522 0.659192 65.331355 0.581067 65.169897 C 0.50815 65.008439 0.534192 64.81573 0.653983 64.680314 L 55.664404 0.758435 C 56.075862 0.279268 56.680029 -0.00198215 57.315445 -0.00198215 Z M 57.315445 -0.00198215 " stroke="#ff7410" stroke-width="12" stroke-opacity="1" stroke-miterlimit="4"/></g></g><path stroke-linecap="butt" transform="matrix(0.844791, 0, 0, 0.844791, 150.775058, 107.971656)" fill="none" stroke-linejoin="miter" d="M 21.998724 103.997914 L 1.639576 103.997914 L 10.762583 60.907544 L 31.29744 60.907544 Z M 33.914583 47.766344 C 33.914583 49.301488 33.595532 50.637803 32.95743 51.779913 C 32.323952 52.922022 31.482397 53.893047 30.43739 54.692986 C 29.410878 55.492926 28.227153 56.094036 26.890838 56.505566 C 25.554524 56.893975 24.181218 57.092804 22.780168 57.092804 C 20.102914 57.092804 17.86031 56.454702 16.052355 55.183123 C 14.253647 53.911543 13.356606 51.904759 13.356606 49.16277 C 13.356606 47.692362 13.661785 46.379167 14.262895 45.223185 C 14.86863 44.048708 15.682441 43.077683 16.708952 42.310111 C 17.75396 41.542539 18.960805 40.964549 20.334111 40.571515 C 21.702793 40.164609 23.122338 39.961157 24.588123 39.961157 C 27.200642 39.961157 29.401631 40.599258 31.195714 41.870838 C 33.008293 43.128546 33.914583 45.093715 33.914583 47.766344 Z M 76.514817 101.60272 C 73.708094 102.726335 70.748781 103.54477 67.632255 104.048778 C 64.534224 104.552786 61.010792 104.807102 57.061959 104.807102 C 53.58939 104.807102 50.398881 104.455683 47.495055 103.75747 C 44.591229 103.054633 42.071189 101.935643 39.934935 100.405124 C 37.794057 98.851484 36.12482 96.863196 34.917975 94.431011 C 33.71113 91.984953 33.105396 89.02564 33.105396 85.548448 C 33.105396 81.946409 33.725002 78.594062 34.964214 75.491408 C 36.203426 72.374881 38.071493 69.651388 40.568413 67.32093 C 43.083829 64.985847 46.269714 63.150148 50.135317 61.813833 C 54.019415 60.477518 58.638718 59.807049 63.988601 59.807049 C 68.325844 59.807049 72.094344 60.158467 75.294101 60.861304 C 78.50773 61.559517 81.147992 63.1409 83.219511 65.605453 L 80.408164 78.455345 L 66.776828 78.455345 C 66.841563 77.313235 66.906298 76.309843 66.971033 75.445168 C 67.054264 74.561998 67.095879 73.590974 67.095879 72.532095 C 67.095879 70.395841 66.860059 68.879193 66.383795 67.982151 C 65.912154 67.066614 65.144582 66.608845 64.085703 66.608845 C 62.208389 66.608845 60.571519 67.529006 59.165845 69.373953 C 57.764796 71.200404 56.60419 73.406017 55.693276 75.981544 C 54.796235 78.557071 54.125765 81.266692 53.686492 84.105783 C 53.261091 86.944874 53.048391 89.367811 53.048391 91.374595 C 53.048391 92.105175 53.080758 92.858876 53.145493 93.626447 C 53.210228 94.389395 53.358194 95.110728 53.58939 95.776573 C 53.834458 96.447042 54.148885 96.983418 54.541919 97.394947 C 54.948824 97.783357 55.522191 97.982186 56.252772 97.982186 C 56.923241 97.982186 57.690813 97.783357 58.555487 97.394947 C 59.434033 96.983418 60.275588 96.363812 61.075527 95.531505 C 61.875466 94.699198 62.643038 93.617199 63.373618 92.280885 C 64.108823 90.939946 64.68219 89.335444 65.089095 87.458129 L 79.404771 87.458129 Z M 108.984029 79.139686 L 132.32561 60.907544 L 145.563912 60.907544 L 125.620917 77.230004 L 140.546951 103.997914 L 118.083917 103.997914 L 107.883535 83.860715 L 103.671138 103.997914 L 83.214887 103.997914 L 97.45658 36.631929 L 117.986814 36.631929 Z M 163.703575 103.997914 L 143.247324 103.997914 L 157.489018 36.631929 L 178.019252 36.631929 Z M 195.465326 83.860715 C 195.206386 85.331123 195.016805 86.732173 194.901207 88.068488 C 194.804105 89.409426 194.757865 90.607023 194.757865 91.665902 C 194.757865 92.271637 194.790233 92.937482 194.854968 93.672687 C 194.919703 94.407891 195.067669 95.092232 195.294241 95.730334 C 195.539309 96.363812 195.872232 96.904811 196.297633 97.344084 C 196.736906 97.769485 197.36576 97.982186 198.184195 97.982186 C 198.771434 97.982186 199.446527 97.783357 200.214099 97.394947 C 200.995542 96.983418 201.772362 96.414675 202.539934 95.679471 C 203.302882 94.944266 204.038086 94.047225 204.740923 92.988345 C 205.44376 91.910971 205.989383 90.704126 206.377793 89.367811 L 222.825099 89.367811 L 220.231076 100.086073 C 218.890138 100.964619 217.35037 101.709071 215.602526 102.310181 C 213.877801 102.89742 212.042103 103.378308 210.100054 103.75747 C 208.158004 104.113513 206.183588 104.377076 204.176804 104.538914 C 202.17002 104.719247 200.269586 104.807102 198.475502 104.807102 C 195.132404 104.807102 192.025125 104.506546 189.153667 103.900812 C 186.282208 103.299702 183.77604 102.263942 181.639786 100.793533 C 179.503532 99.327749 177.815799 97.376452 176.576587 94.944266 C 175.33275 92.498209 174.713144 89.474161 174.713144 85.867499 C 174.713144 82.589135 175.231024 79.384754 176.257536 76.249732 C 177.302543 73.100838 179.036515 70.31261 181.468701 67.880425 C 183.914758 65.434368 187.193122 63.478447 191.303792 62.008038 C 195.419087 60.542253 200.547021 59.807049 206.696844 59.807049 C 213.36917 59.807049 218.395378 60.842809 221.770844 62.914328 C 225.14631 64.985847 226.838667 68.222595 226.838667 72.629197 C 226.838667 74.441776 226.565856 76.397697 226.02948 78.501584 C 225.488481 80.60547 224.693166 82.39493 223.629662 83.860715 Z M 208.80073 71.921736 C 208.80073 69.845593 208.467807 68.444544 207.797338 67.709339 C 207.131493 66.978759 206.322306 66.608845 205.374401 66.608845 C 204.315522 66.608845 203.330625 66.960263 202.415088 67.6631 C 201.518046 68.361313 200.704235 69.29997 199.969031 70.474447 C 199.233826 71.648925 198.563357 72.989863 197.962247 74.488016 C 197.356512 75.990792 196.861752 77.572175 196.468718 79.236788 L 207.894441 79.236788 C 208.028534 78.436849 208.158004 77.604542 208.287474 76.739868 C 208.416944 76.004663 208.532542 75.204724 208.629645 74.34005 C 208.745243 73.461504 208.80073 72.652317 208.80073 71.921736 Z M 208.80073 71.921736 " stroke="#ff7410" stroke-width="6.2645" stroke-opacity="1" stroke-miterlimit="4"/><g fill="#c1ff72" fill-opacity="1"><g transform="translate(153.005833, 195.829887)"><g><path d="M 16.34375 0 L -0.84375 0 L 6.859375 -36.40625 L 24.21875 -36.40625 Z M 26.421875 -47.5 C 26.421875 -46.195312 26.148438 -45.066406 25.609375 -44.109375 C 25.078125 -43.148438 24.375 -42.332031 23.5 -41.65625 C 22.625 -40.976562 21.617188 -40.46875 20.484375 -40.125 C 19.359375 -39.789062 18.203125 -39.625 17.015625 -39.625 C 14.753906 -39.625 12.863281 -40.160156 11.34375 -41.234375 C 9.820312 -42.304688 9.0625 -44 9.0625 -46.3125 C 9.0625 -47.550781 9.3125 -48.664062 9.8125 -49.65625 C 10.320312 -50.644531 11.015625 -51.460938 11.890625 -52.109375 C 12.765625 -52.765625 13.78125 -53.257812 14.9375 -53.59375 C 16.101562 -53.9375 17.304688 -54.109375 18.546875 -54.109375 C 20.742188 -54.109375 22.601562 -53.570312 24.125 -52.5 C 25.65625 -51.425781 26.421875 -49.757812 26.421875 -47.5 Z M 26.421875 -47.5 "/></g></g></g><g fill="#c1ff72" fill-opacity="1"><g transform="translate(177.812355, 195.829887)"><g><path d="M 37.59375 -2.03125 C 35.21875 -1.070312 32.71875 -0.382812 30.09375 0.03125 C 27.46875 0.457031 24.492188 0.671875 21.171875 0.671875 C 18.234375 0.671875 15.535156 0.378906 13.078125 -0.203125 C 10.628906 -0.796875 8.5 -1.742188 6.6875 -3.046875 C 4.882812 -4.347656 3.472656 -6.023438 2.453125 -8.078125 C 1.441406 -10.140625 0.9375 -12.640625 0.9375 -15.578125 C 0.9375 -18.628906 1.457031 -21.46875 2.5 -24.09375 C 3.539062 -26.71875 5.117188 -29.015625 7.234375 -30.984375 C 9.359375 -32.960938 12.054688 -34.515625 15.328125 -35.640625 C 18.597656 -36.773438 22.492188 -37.34375 27.015625 -37.34375 C 30.679688 -37.34375 33.867188 -37.046875 36.578125 -36.453125 C 39.285156 -35.859375 41.515625 -34.515625 43.265625 -32.421875 L 40.890625 -21.59375 L 29.375 -21.59375 C 29.4375 -22.550781 29.492188 -23.394531 29.546875 -24.125 C 29.609375 -24.863281 29.640625 -25.6875 29.640625 -26.59375 C 29.640625 -28.394531 29.441406 -29.675781 29.046875 -30.4375 C 28.648438 -31.195312 28 -31.578125 27.09375 -31.578125 C 25.507812 -31.578125 24.125 -30.800781 22.9375 -29.25 C 21.757812 -27.695312 20.785156 -25.832031 20.015625 -23.65625 C 19.253906 -21.488281 18.691406 -19.203125 18.328125 -16.796875 C 17.960938 -14.398438 17.78125 -12.359375 17.78125 -10.671875 C 17.78125 -10.046875 17.804688 -9.410156 17.859375 -8.765625 C 17.921875 -8.117188 18.050781 -7.507812 18.25 -6.9375 C 18.445312 -6.375 18.710938 -5.921875 19.046875 -5.578125 C 19.390625 -5.242188 19.867188 -5.078125 20.484375 -5.078125 C 21.054688 -5.078125 21.707031 -5.242188 22.4375 -5.578125 C 23.164062 -5.921875 23.867188 -6.445312 24.546875 -7.15625 C 25.234375 -7.863281 25.882812 -8.78125 26.5 -9.90625 C 27.125 -11.03125 27.601562 -12.382812 27.9375 -13.96875 L 40.046875 -13.96875 Z M 37.59375 -2.03125 "/></g></g></g><g fill="#c1ff72" fill-opacity="1"><g transform="translate(221.922234, 195.829887)"><g><path d="M 20.90625 -21 L 40.640625 -36.40625 L 51.8125 -36.40625 L 34.96875 -22.609375 L 47.578125 0 L 28.625 0 L 19.984375 -17.015625 L 16.421875 0 L -0.84375 0 L 11.171875 -56.90625 L 28.53125 -56.90625 Z M 20.90625 -21 "/></g></g></g><g fill="#c1ff72" fill-opacity="1"><g transform="translate(272.635907, 195.829887)"><g><path d="M 16.421875 0 L -0.84375 0 L 11.171875 -56.90625 L 28.53125 -56.90625 Z M 16.421875 0 "/></g></g></g><g fill="#c1ff72" fill-opacity="1"><g transform="translate(297.44243, 195.829887)"><g><path d="M 18.453125 -17.015625 C 18.234375 -15.773438 18.078125 -14.585938 17.984375 -13.453125 C 17.898438 -12.328125 17.859375 -11.316406 17.859375 -10.421875 C 17.859375 -9.910156 17.882812 -9.34375 17.9375 -8.71875 C 18 -8.101562 18.128906 -7.523438 18.328125 -6.984375 C 18.523438 -6.453125 18.804688 -6 19.171875 -5.625 C 19.546875 -5.257812 20.070312 -5.078125 20.75 -5.078125 C 21.25 -5.078125 21.820312 -5.242188 22.46875 -5.578125 C 23.125 -5.921875 23.773438 -6.398438 24.421875 -7.015625 C 25.078125 -7.640625 25.703125 -8.40625 26.296875 -9.3125 C 26.890625 -10.21875 27.351562 -11.234375 27.6875 -12.359375 L 41.578125 -12.359375 L 39.375 -3.296875 C 38.238281 -2.566406 36.9375 -1.945312 35.46875 -1.4375 C 34.007812 -0.925781 32.457031 -0.515625 30.8125 -0.203125 C 29.175781 0.0976562 27.507812 0.316406 25.8125 0.453125 C 24.125 0.597656 22.519531 0.671875 21 0.671875 C 18.175781 0.671875 15.550781 0.421875 13.125 -0.078125 C 10.695312 -0.585938 8.578125 -1.460938 6.765625 -2.703125 C 4.960938 -3.953125 3.539062 -5.601562 2.5 -7.65625 C 1.457031 -9.71875 0.9375 -12.273438 0.9375 -15.328125 C 0.9375 -18.085938 1.375 -20.796875 2.25 -23.453125 C 3.125 -26.109375 4.585938 -28.460938 6.640625 -30.515625 C 8.703125 -32.578125 11.46875 -34.226562 14.9375 -35.46875 C 18.414062 -36.71875 22.75 -37.34375 27.9375 -37.34375 C 33.582031 -37.34375 37.828125 -36.46875 40.671875 -34.71875 C 43.523438 -32.96875 44.953125 -30.226562 44.953125 -26.5 C 44.953125 -24.976562 44.726562 -23.328125 44.28125 -21.546875 C 43.832031 -19.765625 43.15625 -18.253906 42.25 -17.015625 Z M 29.71875 -27.09375 C 29.71875 -28.84375 29.4375 -30.023438 28.875 -30.640625 C 28.3125 -31.265625 27.632812 -31.578125 26.84375 -31.578125 C 25.9375 -31.578125 25.101562 -31.28125 24.34375 -30.6875 C 23.582031 -30.09375 22.890625 -29.300781 22.265625 -28.3125 C 21.648438 -27.332031 21.085938 -26.207031 20.578125 -24.9375 C 20.066406 -23.664062 19.644531 -22.320312 19.3125 -20.90625 L 28.953125 -20.90625 C 29.066406 -21.59375 29.179688 -22.300781 29.296875 -23.03125 C 29.410156 -23.65625 29.507812 -24.332031 29.59375 -25.0625 C 29.675781 -25.789062 29.71875 -26.46875 29.71875 -27.09375 Z M 29.71875 -27.09375 "/></g></g></g></svg>